# xmcd
#
# Track frame offsets:
#	150
#	26115
#	46479
#	64654
#	78000
#	90635
#	100239
#	114445
#	126085
#	146051
#	164714
#	184570
#	198561
#	227784
#	243696
#
# Disc length: 3616
#
# Revision: 1
# Processed by: cddbd v1.5.1PL0 Copyright (c) Steve Scherf et al.
# Submitted via: WhereIsIt 3.23
# Normalized: r0:DSETVAR1
#
DISCID=d00e1e0f
DTITLE=Various Artist - Blues Story - Vol. 12 - Le West Coast Blues
DYEAR=1900
DGENRE=
TTITLE0=Robert Cray - Nothing Against You
TTITLE1=Robben Ford - He Don't Play Nothing But The Blues
TTITLE2=Pops Stapples and Ry Cooder - I Shall Not Be Moved
TTITLE3=Ray Charles - You Are My Sunshine
TTITLE4=T. Bone Walker - Stormy Monday Blues
TTITLE5=Pee Wee Crayton - Baby You Don't Cry
TTITLE6=Lowell Fulson - Reconsider Baby
TTITLE7=Johnny Otis - Willie and The Hand Jive
TTITLE8=The Bone Shakers - Long Way Down
TTITLE9=Tommy Castro - Suitcase Full Of Blues
TTITLE10=Coco Montoya - To Much Of A Good Thing
TTITLE11=Elvin Bishop - Don't You Lie To Me
TTITLE12=Charles Brown - These Blues
TTITLE13=Roy Rogers - Terraplane Blues
TTITLE14=Joe Louis Walker - Mile Hi-Club
EXTD=
EXTT0=
EXTT1=
EXTT2=
EXTT3=
EXTT4=
EXTT5=
EXTT6=
EXTT7=
EXTT8=
EXTT9=
EXTT10=
EXTT11=
EXTT12=
EXTT13=
EXTT14=
PLAYORDER=
